<?xml version="1.0" standalone="no"?>
<!DOCTYPE svg PUBLIC "-//W3C//DTD SVG 20010904//EN"
 "http://www.w3.org/TR/2001/REC-SVG-20010904/DTD/svg10.dtd">
<svg version="1.0" xmlns="http://www.w3.org/2000/svg"
 width="164.000000pt" height="98.000000pt" viewBox="0 0 164.000000 98.000000"
 preserveAspectRatio="xMidYMid meet">

<g transform="translate(0.000000,98.000000) scale(0.100000,-0.100000)"
fill="#ffffff" stroke="none">
<path d="M140 540 l0 -300 55 0 55 0 0 115 0 115 145 0 145 0 0 -115 0 -115
55 0 55 0 0 300 0 300 -55 0 -55 0 0 -135 0 -135 -145 0 -145 0 0 135 0 135
-55 0 -55 0 0 -300z"/>
<path d="M790 505 l0 -335 30 0 30 0 0 335 0 335 -30 0 -30 0 0 -335z"/>
<path d="M1134 743 c-71 -150 -234 -506 -234 -510 0 -2 24 -3 53 -3 l52 0 27
60 26 60 130 0 129 0 26 -60 26 -60 55 0 c49 0 55 2 49 18 -29 75 -273 587
-282 590 -6 2 -32 -40 -57 -95z m99 -201 c20 -48 37 -92 37 -98 0 -11 -153
-14 -164 -3 -4 3 8 37 25 74 17 38 35 79 40 92 5 13 12 23 17 23 4 0 24 -39
45 -88z"/>
<path d="M1180 566 c0 -2 7 -9 15 -16 9 -7 15 -8 15 -2 0 5 -7 12 -15 16 -8 3
-15 4 -15 2z"/>
<path d="M1185 526 c17 -14 35 -25 40 -25 11 0 -20 25 -50 41 -11 5 -6 -2 10
-16z"/>
<path d="M1183 494 c21 -14 41 -24 43 -21 6 5 -59 47 -72 47 -5 0 9 -12 29
-26z"/>
<path d="M1155 484 c36 -28 61 -36 30 -10 -16 14 -34 25 -40 25 -5 0 -1 -7 10
-15z"/>
<path d="M1130 471 c0 -9 30 -24 36 -18 2 1 -6 8 -16 15 -11 7 -20 8 -20 3z"/>
<path d="M695 796 c17 -14 34 -26 39 -26 11 0 11 0 -34 29 l-35 23 30 -26z"/>
<path d="M295 786 c17 -14 35 -26 40 -26 11 1 -20 27 -50 41 -11 6 -6 -1 10
-15z"/>
<path d="M1250 790 c35 -24 54 -31 30 -11 -14 11 -29 21 -35 21 -5 0 -3 -5 5
-10z"/>
<path d="M695 766 c17 -14 35 -25 40 -25 11 0 -20 25 -50 41 -11 5 -6 -2 10
-16z"/>
<path d="M295 756 c17 -14 34 -26 39 -26 11 0 11 0 -34 29 l-35 23 30 -26z"/>
<path d="M695 736 c17 -14 35 -26 40 -26 11 1 -20 27 -50 41 -11 6 -6 -1 10
-15z"/>
<path d="M1280 741 c14 -11 30 -21 35 -21 11 0 -7 14 -40 31 -13 7 -12 3 5
-10z"/>
<path d="M295 726 c17 -14 34 -26 39 -26 11 0 11 0 -34 29 l-35 23 30 -26z"/>
<path d="M695 705 c17 -14 34 -25 39 -25 6 0 -5 11 -24 25 -43 32 -54 32 -15
0z"/>
<path d="M270 716 c0 -2 16 -16 35 -30 19 -15 35 -23 35 -19 0 4 -16 18 -35
31 -19 12 -35 20 -35 18z"/>
<path d="M1280 716 c0 -2 14 -14 30 -26 17 -12 30 -19 30 -16 0 2 -13 14 -30
26 -16 12 -30 19 -30 16z"/>
<path d="M695 676 c17 -14 34 -26 39 -26 11 0 11 0 -34 29 l-35 23 30 -26z"/>
<path d="M274 681 c10 -16 66 -53 66 -44 0 4 -16 18 -36 31 -20 13 -33 19 -30
13z"/>
<path d="M695 646 c17 -14 34 -26 39 -26 11 0 11 0 -34 29 l-35 23 30 -26z"/>
<path d="M1300 665 c0 -2 15 -12 33 -20 l32 -16 -25 20 c-24 20 -40 26 -40 16z"/>
<path d="M270 653 c0 -5 16 -18 35 -31 19 -12 35 -19 35 -15 0 5 -16 18 -35
31 -19 12 -35 19 -35 15z"/>
<path d="M695 616 c17 -14 34 -26 39 -26 11 0 11 0 -34 29 l-35 23 30 -26z"/>
<path d="M1345 606 c17 -14 35 -26 40 -26 11 1 -20 27 -50 41 -11 6 -6 -1 10
-15z"/>
<path d="M286 605 c10 -8 23 -15 28 -15 6 0 1 7 -10 15 -10 8 -23 15 -28 15
-6 0 -1 -7 10 -15z"/>
<path d="M686 588 c16 -12 35 -26 42 -31 6 -5 12 -6 12 -1 0 9 -64 54 -76 54
-4 0 6 -10 22 -22z"/>
<path d="M1340 583 c0 -5 14 -17 30 -26 17 -10 30 -16 30 -13 0 2 -13 14 -30
26 -16 12 -30 18 -30 13z"/>
<path d="M660 576 c0 -2 19 -15 43 -30 l42 -27 -35 31 c-30 27 -50 37 -50 26z"/>
<path d="M680 531 c14 -12 34 -27 45 -33 17 -9 18 -9 8 3 -6 8 -26 22 -45 32
l-33 19 25 -21z"/>
<path d="M1375 525 c11 -9 29 -21 40 -26 l20 -10 -20 16 c-11 9 -29 21 -40 26
l-20 10 20 -16z"/>
<path d="M667 509 c6 -8 26 -23 45 -33 21 -13 29 -14 21 -5 -6 8 -26 23 -45
33 -21 13 -29 14 -21 5z"/>
<path d="M1389 487 c14 -18 51 -42 51 -33 0 3 -15 15 -32 27 -24 17 -29 18
-19 6z"/>
<path d="M667 479 c6 -8 26 -22 45 -32 l33 -19 -25 21 c-14 12 -34 27 -45 33
-17 9 -18 9 -8 -3z"/>
<path d="M295 444 c36 -28 61 -36 30 -10 -16 14 -34 26 -40 26 -5 -1 -1 -8 10
-16z"/>
<path d="M355 436 c17 -14 35 -26 40 -26 11 1 -20 27 -50 41 -11 6 -6 -1 10
-15z"/>
<path d="M402 435 c20 -14 40 -25 45 -25 4 0 -9 11 -29 25 -20 14 -40 25 -45
25 -4 0 9 -11 29 -25z"/>
<path d="M435 444 c36 -28 61 -36 30 -10 -16 14 -34 25 -40 25 -5 0 -1 -7 10
-15z"/>
<path d="M474 451 c4 -6 16 -16 28 -22 15 -8 18 -8 14 0 -4 6 -16 16 -28 22
-15 8 -18 8 -14 0z"/>
<path d="M695 426 c17 -14 35 -26 40 -26 11 1 -20 27 -50 41 -11 6 -6 -1 10
-15z"/>
<path d="M1420 431 c14 -11 30 -21 35 -21 11 0 -7 14 -40 31 -13 7 -12 3 5
-10z"/>
<path d="M295 416 c17 -14 34 -26 39 -26 11 0 11 0 -34 29 l-35 23 30 -26z"/>
<path d="M695 396 c17 -14 35 -26 40 -26 11 1 -20 27 -50 41 -11 6 -6 -1 10
-15z"/>
<path d="M270 406 c0 -2 16 -16 35 -30 19 -15 35 -23 35 -19 0 4 -16 18 -35
31 -19 12 -35 20 -35 18z"/>
<path d="M1420 406 c0 -2 14 -14 30 -26 17 -12 30 -19 30 -16 0 2 -13 14 -30
26 -16 12 -30 19 -30 16z"/>
<path d="M695 366 c17 -14 34 -26 39 -26 11 0 11 0 -34 29 l-35 23 30 -26z"/>
<path d="M270 373 c1 -10 70 -54 70 -45 0 4 -16 17 -35 30 -19 12 -35 19 -35
15z"/>
<path d="M695 336 c17 -14 34 -26 39 -26 11 0 11 0 -34 29 l-35 23 30 -26z"/>
<path d="M1440 355 c0 -2 15 -12 33 -20 l32 -16 -25 20 c-24 20 -40 26 -40 16z"/>
<path d="M285 328 c11 -6 28 -18 38 -26 9 -8 17 -11 17 -6 0 10 -52 44 -67 44
-4 0 1 -6 12 -12z"/>
<path d="M695 306 c17 -14 34 -26 39 -26 11 0 11 0 -34 29 l-35 23 30 -26z"/>
<path d="M1070 326 c0 -6 66 -46 76 -46 5 0 -8 11 -28 25 -36 24 -48 30 -48
21z"/>
<path d="M1138 310 c42 -26 56 -26 17 0 -16 11 -34 20 -40 20 -5 0 5 -9 23
-20z"/>
<path d="M1170 320 c35 -24 54 -31 30 -11 -14 11 -29 21 -35 21 -5 0 -3 -5 5
-10z"/>
<path d="M1230 311 c14 -11 30 -21 35 -21 11 0 -7 14 -40 31 -13 7 -12 3 5
-10z"/>
<path d="M1275 310 c17 -11 35 -20 40 -20 6 0 -3 9 -20 20 -16 11 -34 20 -40
20 -5 0 4 -9 20 -20z"/>
<path d="M1475 305 c11 -9 29 -21 40 -26 l20 -10 -20 16 c-11 9 -29 21 -40 26
l-20 10 20 -16z"/>
<path d="M271 307 c32 -26 69 -47 69 -40 0 9 -52 43 -66 43 -4 0 -5 -1 -3 -3z"/>
<path d="M1067 299 c12 -15 73 -53 73 -46 0 2 -19 17 -42 32 -24 16 -38 22
-31 14z"/>
<path d="M670 296 c0 -2 16 -16 35 -30 19 -15 35 -23 35 -19 0 4 -16 18 -35
31 -19 12 -35 20 -35 18z"/>
<path d="M271 277 c2 -2 20 -14 39 -26 l35 -23 -30 26 c-16 14 -34 26 -39 26
-5 0 -7 -1 -5 -3z"/>
<path d="M1050 276 c0 -6 66 -46 76 -46 5 0 -8 11 -28 25 -36 24 -48 30 -48
21z"/>
<path d="M660 266 c0 -2 18 -15 40 -30 22 -14 40 -23 40 -19 0 5 -16 18 -35
31 -34 21 -45 26 -45 18z"/>
<path d="M1494 261 c4 -6 16 -16 28 -22 15 -8 18 -8 14 0 -4 6 -16 16 -28 22
-15 8 -18 8 -14 0z"/>
<path d="M1047 249 c6 -8 26 -23 45 -33 21 -13 29 -14 21 -5 -6 8 -26 23 -45
33 -21 13 -29 14 -21 5z"/>
<path d="M271 247 c2 -2 20 -14 39 -26 l35 -23 -30 26 c-16 14 -34 26 -39 26
-5 0 -7 -1 -5 -3z"/>
<path d="M660 236 c0 -2 18 -15 40 -30 22 -14 40 -23 40 -19 0 5 -16 18 -35
31 -34 21 -45 26 -45 18z"/>
<path d="M1063 204 c21 -14 41 -24 43 -21 6 5 -59 47 -72 47 -5 0 9 -12 29
-26z"/>
<path d="M1515 215 c11 -9 29 -21 40 -26 l20 -10 -20 16 c-11 9 -29 21 -40 26
l-20 10 20 -16z"/>
<path d="M195 204 c36 -28 61 -36 30 -10 -16 14 -34 25 -40 25 -5 0 -1 -7 10
-15z"/>
<path d="M253 194 c21 -14 41 -24 43 -21 6 5 -59 47 -72 47 -5 0 9 -12 29 -26z"/>
<path d="M285 204 c36 -28 61 -36 30 -10 -16 14 -34 26 -40 26 -5 -1 -1 -8 10
-16z"/>
<path d="M625 196 c17 -14 35 -26 40 -26 11 1 -20 27 -50 41 -11 6 -6 -1 10
-15z"/>
<path d="M640 216 c0 -5 69 -46 78 -46 4 0 -10 11 -30 25 -36 24 -48 30 -48
21z"/>
<path d="M1033 196 c15 -14 33 -26 39 -26 13 0 14 0 -32 29 l-35 23 28 -26z"/>
<path d="M990 190 c14 -11 30 -20 35 -20 6 0 -1 9 -15 20 -14 11 -29 20 -35
20 -5 0 1 -9 15 -20z"/>
<path d="M1455 190 c17 -11 35 -20 40 -20 6 0 -3 9 -20 20 -16 11 -34 20 -40
20 -5 0 4 -9 20 -20z"/>
<path d="M1503 190 c14 -11 29 -20 34 -20 10 1 -39 39 -51 40 -5 0 3 -9 17
-20z"/>
</g>
</svg>
